<?xml version="1.0" standalone="no"?>
<!DOCTYPE svg PUBLIC "-//W3C//DTD SVG 20010904//EN"
 "http://www.w3.org/TR/2001/REC-SVG-20010904/DTD/svg10.dtd">
<svg version="1.0" xmlns="http://www.w3.org/2000/svg"
 width="512.000000pt" height="512.000000pt" viewBox="0 0 512.000000 512.000000"
 preserveAspectRatio="xMidYMid meet">

<g transform="translate(0.000000,512.000000) scale(0.100000,-0.100000)"
fill="#000000" stroke="none">
<path d="M2442 5110 c-211 -45 -407 -200 -488 -387 -28 -64 -54 -175 -54 -230
l0 -53 666 0 666 0 -7 63 c-18 170 -80 302 -195 418 -126 127 -264 188 -445
194 -55 2 -120 0 -143 -5z"/>
<path d="M1900 3880 c0 -66 4 -120 8 -120 7 0 546 201 617 231 11 4 -125 8
-302 8 l-323 1 0 -120z"/>
<path d="M2560 3151 l-655 -248 -3 -168 c-2 -132 0 -166 10 -163 7 2 304 114
661 248 l647 244 0 168 c0 92 -1 168 -2 168 -2 -1 -298 -112 -658 -249z"/>
<path d="M2553 1962 l-652 -247 -1 -168 c0 -99 4 -167 9 -165 5 2 302 113 660
248 l651 245 0 168 c0 92 -3 167 -7 166 -5 0 -302 -112 -660 -247z"/>
<path d="M1900 628 c0 -56 26 -167 54 -231 70 -162 220 -296 406 -364 65 -23
91 -27 195 -27 99 -1 133 3 195 22 113 36 196 86 280 171 115 116 177 248 195
419 l7 62 -666 0 -666 0 0 -52z"/>
</g>
</svg>
