<?xml version="1.0" standalone="no"?>
<!DOCTYPE svg PUBLIC "-//W3C//DTD SVG 20010904//EN"
 "http://www.w3.org/TR/2001/REC-SVG-20010904/DTD/svg10.dtd">
<svg version="1.0" xmlns="http://www.w3.org/2000/svg"
 width="512.000000pt" height="512.000000pt" viewBox="0 0 512.000000 512.000000"
 preserveAspectRatio="xMidYMid meet">

<g transform="translate(0.000000,512.000000) scale(0.100000,-0.100000)"
fill="#000000" stroke="none">
<path d="M78 4639 c-23 -12 -46 -35 -58 -59 -19 -38 -20 -58 -20 -528 0 -653
16 -839 105 -1188 146 -575 441 -1091 870 -1519 352 -353 744 -604 1219 -780
106 -39 335 -105 366 -105 67 0 413 117 615 207 219 98 504 275 710 439 141
113 386 358 499 499 339 423 580 943 676 1453 50 270 52 309 57 908 5 565 5
572 -16 613 -24 46 -80 81 -131 81 -17 0 -49 -9 -70 -20 -54 -28 -80 -80 -80
-164 0 -242 -68 -567 -171 -814 -108 -259 -299 -544 -489 -727 -34 -33 -64
-55 -67 -48 -19 52 -135 202 -211 274 -134 126 -273 200 -453 240 -111 24
-286 28 -399 9 -67 -11 -72 -14 -50 -23 180 -74 298 -147 408 -251 175 -167
253 -363 207 -521 -52 -182 -214 -278 -559 -332 -161 -26 -790 -26 -952 0
-269 42 -421 109 -506 221 -175 233 7 600 402 809 47 24 107 53 134 63 49 18
49 18 20 26 -65 18 -228 26 -317 17 -237 -24 -424 -108 -585 -263 -70 -67
-187 -221 -205 -269 -6 -15 -118 93 -201 193 -291 348 -469 770 -515 1219 -6
57 -11 134 -11 172 0 89 -24 141 -80 169 -49 25 -94 25 -142 -1z"/>
<path d="M2399 3145 c-241 -46 -494 -205 -564 -356 -32 -70 -31 -92 6 -123 72
-61 273 -94 614 -103 512 -13 855 48 855 151 0 12 -11 44 -24 71 -70 147 -288
294 -518 350 -92 23 -277 28 -369 10z"/>
</g>
</svg>
