<?xml version="1.0" standalone="no"?>
<!DOCTYPE svg PUBLIC "-//W3C//DTD SVG 20010904//EN"
 "http://www.w3.org/TR/2001/REC-SVG-20010904/DTD/svg10.dtd">
<svg version="1.0" xmlns="http://www.w3.org/2000/svg"
 width="512.000000pt" height="512.000000pt" viewBox="0 0 512.000000 512.000000"
 preserveAspectRatio="xMidYMid meet">

<g transform="translate(0.000000,512.000000) scale(0.100000,-0.100000)"
fill="#000000" stroke="none">
<path d="M2378 4921 c-251 -109 -482 -213 -513 -232 -65 -38 -136 -113 -167
-173 -27 -53 -35 -166 -15 -221 13 -37 13 -43 -8 -85 -55 -108 -75 -205 -85
-395 -5 -99 -9 -233 -10 -297 l0 -118 -57 0 c-102 0 -218 -73 -267 -168 -25
-48 -39 -159 -33 -256 8 -118 47 -201 122 -258 57 -44 95 -57 183 -65 l62 -6
0 -298 0 -299 25 -16 c19 -12 25 -25 25 -50 0 -19 -4 -34 -9 -34 -5 0 -17 -7
-25 -16 -23 -23 -23 -275 0 -298 8 -9 20 -16 25 -16 5 0 9 -17 9 -39 0 -31 -5
-42 -26 -56 -24 -15 -26 -21 -20 -63 7 -51 20 -72 46 -72 12 0 20 -14 28 -47
6 -27 14 -56 17 -65 5 -13 -9 -24 -67 -53 -139 -69 -262 -180 -342 -306 l-29
-46 -146 88 -146 87 0 84 c0 99 -22 156 -83 215 -108 105 -302 95 -396 -20
-136 -167 -49 -407 162 -447 79 -14 152 7 243 71 12 9 41 -4 147 -66 73 -43
132 -81 132 -84 0 -5 -239 -150 -262 -160 -5 -2 -19 6 -31 17 -99 91 -258 91
-361 1 -70 -62 -91 -108 -91 -204 0 -70 4 -87 29 -133 46 -83 146 -142 241
-142 95 0 203 69 243 154 27 56 37 132 24 178 l-10 37 151 89 152 89 41 -61
c80 -118 200 -223 334 -291 71 -36 890 -375 906 -375 20 0 44 30 44 55 0 19
-72 82 -357 317 -382 312 -445 359 -535 398 -32 14 -58 27 -58 30 0 3 30 18
66 34 36 16 93 49 127 72 l62 43 32 -31 c26 -25 33 -40 33 -70 0 -36 4 -40 68
-83 76 -51 814 -405 844 -405 22 0 688 314 787 371 186 107 334 282 411 486
59 157 60 175 60 831 l0 599 70 6 c124 10 212 68 266 174 28 56 29 63 29 198
0 130 -2 144 -26 195 -52 110 -158 180 -273 180 l-54 0 -5 273 c-5 301 -12
348 -72 496 l-35 89 15 59 c16 64 10 127 -19 198 -19 45 -105 136 -165 174
-51 33 -971 431 -992 430 -8 0 -219 -89 -471 -198z m1174 -1039 c20 -20 23
-35 28 -150 7 -159 22 -191 141 -317 l87 -90 4 -95 c4 -121 29 -177 126 -285
64 -72 72 -84 72 -121 0 -41 -1 -41 -41 -47 -57 -8 -113 -48 -138 -99 -20 -42
-21 -60 -21 -304 0 -178 -4 -276 -13 -315 -24 -100 -96 -178 -196 -214 -34
-12 -89 -15 -250 -15 -113 0 -211 4 -217 8 -22 14 -34 52 -34 104 0 59 -20 99
-66 129 -25 16 -49 19 -184 19 -136 0 -159 -2 -187 -20 -43 -26 -63 -67 -70
-146 -3 -36 -12 -72 -20 -80 -12 -11 -56 -14 -223 -14 -246 0 -291 11 -367 87
-85 84 -87 96 -93 439 l-5 301 -27 40 c-29 44 -96 83 -141 83 -25 0 -27 3 -27
40 0 35 9 49 74 124 40 46 83 105 95 130 23 47 40 139 41 215 0 42 5 49 89
136 111 115 129 157 138 324 6 118 12 137 48 152 11 4 320 7 687 6 l667 -2 23
-23z m-1972 -692 l0 -110 -29 0 c-35 0 -61 -23 -61 -54 0 -31 19 -46 57 -46
l33 0 0 -116 0 -116 -52 7 c-89 12 -146 50 -183 124 -14 27 -16 56 -13 161 3
124 4 130 33 171 39 55 103 89 167 89 l48 0 0 -110z m2703 74 c23 -16 53 -50
67 -74 22 -40 25 -56 25 -155 0 -128 -11 -168 -62 -219 -37 -37 -110 -66 -165
-66 l-28 0 0 115 0 115 33 0 c40 0 57 15 57 52 0 30 -23 48 -64 48 l-26 0 0
111 0 111 60 -4 c46 -3 70 -11 103 -34z m-2093 -1918 c0 -6 -400 -329 -451
-364 -91 -61 -257 -122 -336 -122 l-45 0 27 38 c93 125 217 213 415 295 74 31
189 78 255 106 119 49 135 55 135 47z m-1431 -41 c64 -33 108 -117 96 -183
-21 -116 -156 -178 -259 -119 -47 26 -86 93 -86 147 0 54 39 121 86 147 46 27
121 30 163 8z m786 -597 c132 -43 188 -79 415 -263 265 -216 262 -213 175
-177 -38 17 -160 67 -270 112 -209 87 -303 139 -386 217 -48 44 -119 133 -119
147 0 13 93 -6 185 -36z m-773 -106 c132 -78 93 -287 -59 -318 -102 -20 -203
65 -203 171 0 131 148 214 262 147z"/>
<path d="M2253 3386 c-58 -19 -105 -50 -147 -96 -39 -43 -41 -51 -26 -81 15
-28 61 -25 91 7 91 97 230 106 326 20 27 -23 55 -45 64 -48 26 -10 59 19 59
51 0 36 -70 103 -138 134 -59 25 -171 32 -229 13z"/>
<path d="M3250 3383 c-54 -19 -121 -63 -149 -99 -59 -74 19 -132 85 -63 45 48
101 72 164 72 67 0 115 -19 168 -67 79 -72 150 -25 87 59 -74 96 -235 140
-355 98z"/>
<path d="M2281 3141 c-66 -62 -20 -171 73 -171 14 0 40 13 58 29 27 24 33 36
33 71 0 35 -6 47 -33 71 -44 39 -89 39 -131 0z"/>
<path d="M3289 3142 c-85 -76 8 -210 109 -158 61 32 72 108 23 157 -40 39 -89
40 -132 1z"/>
<path d="M2605 2749 c-22 -5 -98 -37 -169 -71 -117 -56 -135 -62 -208 -66 -44
-3 -104 1 -134 7 -60 14 -88 5 -99 -30 -14 -44 108 -181 210 -236 133 -70 243
-78 489 -34 l158 28 162 -29 c262 -47 382 -33 527 64 69 46 169 161 169 193 0
12 -9 30 -19 39 -17 15 -26 16 -81 5 -35 -7 -95 -9 -140 -6 -71 4 -92 12 -217
71 -165 79 -220 89 -336 61 -58 -14 -82 -15 -106 -7 -46 16 -161 22 -206 11z"/>
<path d="M4508 2525 c-61 -22 -106 -63 -135 -123 l-28 -57 -3 -452 c-2 -291 1
-473 8 -510 21 -116 101 -197 208 -210 l52 -6 0 -71 0 -72 -63 4 c-47 3 -73 0
-98 -13 -47 -24 -726 -701 -751 -749 -29 -57 -22 -141 16 -191 50 -66 146 -92
219 -61 39 17 747 724 764 763 9 21 12 238 13 880 0 761 -2 853 -16 867 -20
20 -133 21 -186 1z m102 -671 l0 -586 -37 7 c-49 9 -79 29 -103 68 -19 31 -20
54 -20 510 0 509 0 507 49 551 18 16 62 32 99 35 9 1 12 -122 12 -585z m-709
-1607 c62 -48 36 -137 -41 -137 -47 0 -74 28 -74 77 0 59 69 95 115 60z"/>
<path d="M1062 2377 c-6 -7 -20 -39 -33 -72 -29 -81 -94 -144 -172 -169 -106
-33 -110 -86 -9 -122 33 -12 74 -33 92 -45 41 -31 84 -97 100 -154 24 -84 86
-85 110 0 16 57 59 123 100 154 18 12 59 33 92 45 101 36 97 89 -9 122 -78 25
-143 88 -172 169 -13 33 -27 65 -33 72 -13 17 -53 17 -66 0z m120 -275 l33
-27 -60 -60 -60 -60 -60 61 -60 61 36 26 c19 14 46 41 59 60 l24 35 27 -35
c15 -19 43 -46 61 -61z"/>
</g>
</svg>
