<?xml version="1.0" standalone="no"?>
<!DOCTYPE svg PUBLIC "-//W3C//DTD SVG 20010904//EN"
 "http://www.w3.org/TR/2001/REC-SVG-20010904/DTD/svg10.dtd">
<svg version="1.0" xmlns="http://www.w3.org/2000/svg"
 width="920.000000pt" height="465.000000pt" viewBox="0 0 920.000000 465.000000"
 preserveAspectRatio="xMidYMid meet">

<g transform="translate(0.000000,465.000000) scale(0.100000,-0.100000)"
fill="#000000" stroke="none">
<path d="M4439 4631 c-83 -27 -213 -99 -273 -153 -58 -52 -139 -156 -177 -228
-22 -41 -24 -56 -24 -190 0 -146 7 -184 48 -281 20 -45 99 -150 139 -184 26
-22 29 -30 24 -60 -7 -34 -43 -77 -106 -124 -18 -14 -39 -39 -46 -57 -28 -66
-11 -198 30 -243 16 -18 23 -91 8 -91 -5 0 -23 32 -42 70 -40 83 -51 95 -106
109 -47 12 -93 58 -150 147 -19 30 -38 54 -42 54 -4 0 -21 -16 -38 -37 -29
-35 -32 -36 -64 -25 -29 11 -35 10 -47 -8 -10 -14 -24 -19 -44 -18 -20 2 -34
-4 -45 -20 -8 -12 -26 -22 -38 -22 -13 0 -29 -7 -36 -15 -7 -8 -27 -15 -46
-15 -24 0 -34 -5 -39 -21 -11 -33 -7 -116 6 -140 7 -15 9 -46 6 -88 -5 -48 -3
-73 8 -91 8 -14 36 -68 62 -120 35 -70 54 -96 69 -98 18 -3 27 -14 52 -64 2
-5 -7 -8 -21 -8 -55 0 -158 -41 -212 -85 -30 -25 -57 -45 -60 -45 -3 0 -28 18
-55 39 -84 66 -180 75 -302 30 -50 -19 -62 -20 -89 -9 -35 15 -34 21 20 93 65
86 101 163 94 200 -17 93 -102 163 -220 182 -46 7 -133 -14 -167 -40 -17 -13
-18 -18 -6 -40 12 -23 11 -28 -14 -54 -15 -16 -57 -43 -93 -61 -150 -73 -290
-187 -335 -273 -29 -57 -29 -151 2 -246 l22 -70 -25 -53 c-44 -94 -70 -191
-76 -278 l-6 -85 -35 -4 c-19 -2 -271 -4 -560 -6 -289 -1 -559 -5 -600 -9 -86
-9 -129 -31 -160 -81 -23 -38 -53 -45 -202 -48 -80 -2 -100 -15 -58 -37 39
-21 18 -28 -100 -35 -66 -4 -120 -11 -120 -14 0 -4 5 -12 12 -19 17 -17 7 -22
-48 -28 -96 -10 -120 -15 -103 -24 13 -8 97 0 174 15 11 2 26 4 33 4 8 1 11 8
7 20 -7 23 26 31 136 31 81 0 105 11 73 35 -11 7 -16 16 -12 20 3 4 50 9 103
12 53 3 101 11 106 17 5 6 21 26 35 44 15 18 40 40 56 48 46 24 281 35 563 26
294 -8 434 -8 606 2 l126 8 5 101 c5 92 10 113 52 221 l48 119 -21 62 c-31 97
-36 155 -16 214 31 95 152 203 330 294 105 54 145 95 124 128 -15 23 -11 29
28 46 109 45 289 -38 309 -142 7 -42 -22 -104 -98 -208 -28 -37 -48 -73 -45
-81 3 -8 29 -22 57 -31 46 -15 53 -15 74 -1 42 27 146 41 212 28 45 -10 66
-21 105 -57 26 -25 50 -45 53 -45 3 0 26 19 53 42 63 55 144 91 216 96 66 5
69 12 34 82 -15 30 -30 46 -44 48 -17 3 -36 29 -78 110 -54 103 -56 110 -54
177 1 45 -4 86 -15 115 -24 65 -10 100 39 100 24 0 35 5 35 15 0 10 10 15 33
15 26 0 36 6 44 23 9 19 17 23 47 19 29 -3 36 -1 36 13 0 14 7 15 44 10 40 -6
48 -4 69 19 13 14 26 26 29 26 2 0 26 -31 52 -70 49 -71 83 -99 146 -119 32
-10 41 -22 98 -136 34 -69 66 -125 71 -125 5 0 8 49 7 109 -1 98 -3 112 -23
133 -12 13 -27 47 -34 77 -19 90 16 170 89 200 23 10 36 27 56 74 14 34 26 68
26 76 0 7 -32 47 -71 88 -115 122 -166 265 -157 442 4 72 10 96 38 151 74 146
196 259 370 342 124 60 311 50 455 -25 209 -108 336 -336 323 -578 -5 -78 -10
-98 -44 -165 -22 -42 -68 -113 -105 -157 l-65 -82 24 -35 c13 -19 30 -60 39
-90 13 -47 21 -59 51 -76 44 -24 56 -61 49 -158 -4 -58 -8 -71 -30 -90 -25
-20 -26 -26 -27 -131 -2 -139 -2 -135 13 -135 8 0 37 54 66 123 60 139 118
245 143 261 14 8 39 5 105 -12 112 -29 154 -50 231 -114 90 -77 94 -85 77
-142 -8 -25 -25 -56 -39 -69 -15 -13 -39 -62 -61 -122 -20 -55 -51 -135 -70
-177 -19 -43 -35 -82 -35 -87 0 -11 51 -41 70 -41 5 0 10 10 10 23 1 63 65
143 135 168 29 11 36 19 46 61 7 27 20 55 28 62 39 35 486 215 500 201 3 -3
-3 -27 -13 -53 -45 -116 -57 -157 -49 -159 94 -32 135 -145 98 -268 -8 -27
-12 -51 -9 -54 3 -3 19 1 37 8 132 53 231 59 320 18 l57 -26 -6 41 -7 40 54
-5 c96 -8 180 -27 230 -53 49 -24 50 -24 106 -8 104 30 252 1 283 -55 15 -28
12 -91 -5 -125 -8 -15 -15 -38 -15 -50 -1 -99 -80 -292 -165 -401 -25 -32 -45
-62 -45 -67 0 -4 118 -8 263 -8 144 0 309 -3 367 -5 58 -3 237 -7 398 -10 181
-3 300 -9 313 -15 11 -6 32 -37 47 -68 l27 -57 133 -11 c73 -6 135 -14 138
-17 3 -3 1 -14 -5 -26 -6 -11 -8 -22 -4 -24 5 -3 48 -8 98 -11 49 -4 92 -9 94
-12 3 -2 -1 -10 -7 -16 -20 -20 -14 -26 43 -38 56 -12 145 -5 145 11 0 5 -6
10 -12 11 -7 0 -17 2 -23 3 -5 2 -30 3 -54 4 -37 1 -42 3 -31 16 21 25 2 33
-98 40 -53 4 -101 10 -105 12 -5 3 -1 14 9 24 9 11 15 21 12 24 -4 4 -94 15
-265 31 l-51 5 -33 64 c-41 77 -12 72 -398 74 -156 1 -287 3 -290 6 -4 2 -153
7 -332 11 -178 4 -326 8 -327 10 -2 1 16 31 41 66 24 35 54 81 65 103 28 57
72 207 72 246 0 19 9 48 20 64 25 38 26 99 0 140 -11 17 -43 45 -72 60 -46 25
-64 29 -133 30 -44 0 -100 -6 -124 -14 -40 -14 -46 -13 -85 7 -50 26 -107 39
-212 48 -71 6 -82 5 -87 -11 -4 -9 -5 -21 -1 -26 7 -12 -3 -11 -60 6 -62 19
-145 19 -216 0 -30 -8 -58 -15 -62 -15 -3 0 -4 36 -1 79 5 69 3 85 -17 126
-14 29 -36 55 -57 68 -23 13 -33 25 -29 36 3 9 19 55 37 103 17 48 29 94 25
103 -5 14 -9 14 -43 0 -21 -9 -99 -39 -173 -67 -74 -27 -181 -70 -237 -95 -84
-38 -103 -50 -108 -72 -14 -61 -28 -81 -72 -102 -48 -23 -95 -79 -113 -135
-12 -35 -32 -41 -38 -11 -2 8 11 45 27 81 17 36 31 68 31 71 0 22 88 195 110
216 34 31 48 97 30 139 -15 37 -127 133 -192 166 -55 28 -185 64 -230 64 -37
0 -73 -49 -147 -202 -31 -65 -59 -118 -63 -118 -5 0 -8 29 -8 63 0 51 4 68 20
82 26 24 40 76 40 153 0 76 -19 121 -60 146 -17 9 -30 26 -30 36 0 11 -14 48
-30 82 l-30 62 33 35 c85 90 138 197 162 325 15 81 15 95 0 185 -18 107 -33
143 -103 246 -72 106 -199 200 -331 245 -79 26 -231 27 -312 1z"/>
<path d="M4535 4595 c-5 -2 -27 -6 -49 -10 -62 -10 -37 -14 39 -5 87 10 217
-11 284 -44 77 -39 147 -101 200 -177 89 -126 119 -250 96 -389 -23 -138 -51
-195 -148 -296 -52 -56 -68 -79 -61 -89 5 -8 22 -32 38 -55 16 -22 36 -68 45
-101 15 -53 22 -63 57 -83 l39 -22 -1 -63 c-1 -57 -4 -66 -33 -93 l-31 -29 0
-225 c0 -123 3 -224 8 -224 10 0 24 24 127 220 169 322 160 310 237 290 89
-24 248 -113 268 -149 15 -29 12 -56 -8 -74 -10 -9 -35 -53 -56 -99 -22 -46
-72 -152 -112 -236 -63 -132 -71 -154 -56 -158 9 -3 55 -24 100 -47 81 -39 85
-40 110 -24 44 26 50 43 24 67 -12 11 -22 31 -22 44 0 28 47 74 103 101 36 17
45 28 62 75 28 77 28 77 114 117 83 38 275 113 291 113 16 0 12 -12 -35 -94
-25 -44 -45 -83 -45 -88 0 -4 15 -8 33 -8 50 0 113 -49 126 -97 16 -60 -1
-112 -50 -156 -24 -21 -56 -41 -71 -44 -32 -6 -34 -10 -13 -33 14 -16 14 -21
0 -58 -9 -22 -15 -51 -13 -63 3 -21 9 -17 72 39 38 34 104 78 145 99 71 35 82
37 163 37 75 -1 92 -4 122 -25 51 -34 69 -76 57 -131 -13 -58 0 -70 38 -33 37
34 61 102 61 168 l0 50 45 -6 c59 -9 166 -45 187 -64 16 -14 22 -14 65 5 78
33 125 36 176 14 58 -26 69 -62 37 -127 -19 -40 -20 -47 -7 -65 43 -62 -81
-322 -223 -467 -28 -29 -47 -53 -43 -53 117 1 871 -11 928 -14 44 -3 166 -8
270 -11 105 -3 201 -9 214 -12 17 -4 31 -23 51 -66 l27 -60 94 -4 c51 -2 95
-6 97 -8 2 -2 -2 -13 -8 -25 -6 -12 -9 -24 -6 -28 3 -3 43 -7 88 -9 108 -6
115 -8 94 -31 -9 -10 -16 -22 -16 -25 0 -4 35 -7 78 -6 77 0 79 16 2 19 l-35
1 23 19 c20 17 21 19 5 24 -10 2 -52 7 -93 11 -41 4 -83 9 -93 12 -18 5 -17 6
3 28 12 13 18 25 13 28 -4 3 -52 5 -106 6 -53 1 -104 4 -113 8 -8 3 -26 29
-38 57 -13 28 -30 57 -38 63 -10 9 -85 15 -254 19 -131 3 -250 7 -264 9 -14 3
-215 8 -447 11 -233 4 -423 11 -423 16 0 5 17 27 38 51 120 132 205 313 202
430 -1 29 3 70 10 92 30 105 -75 167 -219 130 l-67 -18 -103 33 c-56 17 -120
34 -142 37 l-39 6 0 -69 c0 -75 -7 -114 -21 -114 -5 0 -9 12 -9 26 0 36 -56
89 -111 105 -24 6 -81 12 -126 12 -75 0 -87 -3 -165 -41 -45 -23 -100 -58
-122 -77 -21 -20 -40 -34 -43 -32 -2 3 2 25 9 50 10 33 24 53 58 79 58 44 70
69 70 147 0 62 -1 65 -44 107 -28 28 -52 44 -68 44 -14 0 -28 3 -31 6 -4 4 14
44 38 89 40 72 55 115 41 115 -18 0 -230 -82 -314 -121 -99 -46 -103 -49 -122
-96 -35 -85 -43 -96 -87 -110 -77 -26 -115 -103 -82 -165 9 -16 7 -24 -8 -39
-18 -18 -20 -18 -106 27 -49 25 -87 49 -85 52 2 4 16 32 30 62 123 259 159
332 186 369 44 61 42 91 -10 141 -80 78 -294 163 -334 133 -22 -16 -140 -224
-230 -405 -46 -91 -48 -80 -44 182 1 118 3 126 25 145 30 25 49 95 40 146 -5
31 -15 45 -49 68 -36 25 -44 37 -54 82 -7 29 -28 74 -47 100 l-35 48 60 61
c98 99 160 257 160 405 0 67 -35 186 -78 270 -67 127 -191 220 -347 260 -53
13 -144 19 -170 10z"/>
<path d="M4370 4547 c-161 -66 -303 -224 -345 -382 -18 -70 -13 -194 12 -288
25 -91 122 -226 202 -280 l23 -16 -20 -28 c-11 -16 -32 -54 -46 -86 -20 -46
-35 -63 -79 -91 -30 -19 -57 -42 -61 -51 -19 -50 9 -155 45 -171 17 -8 19 -22
22 -129 2 -66 1 -145 -2 -175 l-6 -55 -26 40 c-15 22 -52 86 -84 143 -69 125
-104 167 -153 183 -57 19 -89 42 -122 87 -34 48 -42 50 -70 22 -16 -16 -25
-18 -40 -10 -15 8 -21 6 -30 -10 -6 -11 -19 -20 -30 -20 -10 0 -22 -4 -25 -10
-3 -5 -15 -10 -26 -10 -10 0 -19 -4 -19 -10 0 -5 -9 -10 -20 -10 -11 0 -23 -7
-26 -15 -4 -8 -19 -15 -35 -15 -38 0 -53 -27 -33 -64 8 -17 14 -56 14 -95 0
-59 4 -72 39 -129 21 -34 46 -80 56 -102 10 -22 25 -42 35 -45 17 -5 106 -162
97 -171 -2 -3 -40 -6 -83 -7 -94 -3 -179 -38 -257 -105 -27 -23 -52 -42 -57
-42 -4 0 -27 22 -49 49 -26 31 -56 54 -78 62 -49 16 -167 4 -211 -21 -42 -25
-72 -25 -119 0 -21 11 -45 20 -55 20 -31 0 -30 21 4 63 59 73 138 219 138 256
0 80 -161 157 -253 122 -22 -9 -25 -14 -20 -49 4 -27 1 -43 -11 -55 -21 -21
-167 -108 -229 -137 -68 -32 -151 -111 -182 -174 -40 -83 -43 -141 -10 -231
l27 -76 -36 -79 c-58 -128 -88 -244 -83 -322 4 -61 3 -67 -17 -71 -42 -10
-329 -18 -809 -22 -354 -2 -492 -7 -502 -15 -8 -7 -26 -36 -40 -66 l-26 -54
-80 0 -79 0 16 -25 c13 -20 14 -26 3 -30 -14 -5 -173 -25 -197 -25 -7 0 -12
-8 -10 -18 3 -14 -6 -17 -59 -20 -36 -2 -63 -8 -63 -14 0 -5 7 -7 16 -4 9 3
57 6 107 6 83 1 90 2 73 15 -11 8 -17 17 -14 21 3 3 48 9 100 14 51 5 94 10
96 10 1 0 2 9 2 20 0 23 6 26 71 35 44 5 48 8 63 49 33 87 -26 80 713 88 361
4 662 9 670 13 10 3 13 11 8 23 -19 45 -25 110 -14 162 12 65 63 202 90 246
24 40 24 81 -1 139 -31 71 -27 148 11 223 38 76 100 133 210 191 116 61 187
108 199 130 5 11 10 33 10 49 0 35 24 45 85 33 49 -9 82 -26 118 -59 30 -29
34 -57 13 -105 -15 -36 -141 -223 -156 -232 -19 -12 -10 -23 23 -29 18 -3 59
-19 92 -35 61 -30 73 -30 115 1 14 10 53 23 86 29 91 16 132 2 190 -66 25 -30
52 -55 59 -55 7 0 37 20 67 45 98 80 242 128 314 105 20 -7 38 -10 40 -7 10
10 -97 209 -115 214 -10 2 -23 19 -29 37 -7 19 -31 62 -54 97 -38 59 -41 69
-40 128 2 43 -3 72 -13 87 -20 31 -9 54 26 54 16 0 29 5 29 10 0 6 8 10 19 10
10 0 24 7 31 15 7 8 21 15 31 15 11 0 19 5 19 10 0 6 8 10 19 10 10 0 24 7 32
16 7 8 21 13 32 10 11 -2 25 3 35 15 9 10 20 19 24 19 4 0 21 -21 39 -46 24
-36 47 -53 105 -81 85 -41 95 -54 213 -270 40 -73 76 -133 82 -133 5 0 9 85 9
208 l0 208 -28 21 c-15 11 -34 39 -42 62 -17 53 -4 81 58 119 33 20 52 43 77
93 19 36 45 80 59 96 33 39 32 45 -2 66 -48 27 -155 149 -184 208 -49 98 -62
265 -29 360 33 98 62 143 146 227 67 67 99 90 166 122 92 42 97 53 9 17z"/>
<path d="M4457 4526 c-90 -33 -167 -79 -238 -144 -135 -124 -174 -260 -133
-459 26 -128 80 -211 188 -290 34 -25 63 -46 64 -48 2 -2 -14 -20 -36 -40 -35
-31 -122 -160 -122 -181 0 -4 -8 -16 -17 -27 -17 -20 -17 -20 2 -12 11 4 31 9
45 11 19 3 17 0 -10 -11 -59 -26 -65 -31 -68 -60 -5 -39 11 -52 35 -28 11 11
47 25 81 33 34 7 63 18 63 24 3 22 -3 41 -14 48 -6 3 9 12 34 20 30 9 93 12
199 11 198 -3 325 -18 423 -50 l77 -26 0 -44 c0 -53 -19 -65 -64 -39 -126 74
-415 95 -672 51 -96 -17 -124 -29 -124 -50 0 -22 -38 -18 -50 4 -15 30 -12 72
8 87 15 12 15 13 1 14 -27 0 -42 -27 -35 -63 8 -44 33 -77 57 -77 19 0 19 -11
19 -456 l0 -455 -26 -35 c-21 -27 -30 -32 -40 -23 -10 8 -15 8 -18 -2 -2 -8
-12 -37 -21 -65 -22 -70 -61 -129 -134 -202 -57 -57 -136 -110 -148 -99 -3 3
42 68 100 144 138 182 209 307 215 379 4 49 2 56 -26 84 -23 22 -40 30 -67 30
-38 0 -103 -28 -124 -54 -19 -22 -29 -20 -33 6 -3 25 -32 35 -109 37 l-46 1
-32 -83 c-17 -46 -45 -104 -61 -130 -26 -41 -33 -46 -49 -37 -29 15 -30 14
-29 -39 0 -62 -48 -157 -110 -219 -46 -44 -69 -54 -57 -24 28 67 57 168 79
275 14 69 33 143 42 166 18 47 75 101 105 101 12 0 19 5 16 13 -3 8 -26 12
-70 11 -59 0 -73 -5 -144 -46 -42 -25 -85 -56 -95 -69 -17 -22 -17 -29 -3 -94
24 -112 20 -192 -15 -286 -51 -139 -111 -219 -165 -219 -37 0 -49 32 -35 93
16 68 85 198 132 250 21 22 36 43 33 45 -7 7 -93 21 -133 21 -27 1 -35 -4 -40
-21 -15 -59 -98 -203 -147 -256 -51 -55 -119 -101 -131 -90 -11 12 9 80 45
148 48 95 225 329 273 364 46 33 47 58 5 90 -23 17 -43 21 -105 21 -76 0 -78
-1 -145 -48 -37 -26 -70 -47 -72 -47 -2 0 -1 9 2 20 3 11 0 27 -7 35 -14 17
-139 57 -152 49 -4 -3 -8 -21 -8 -39 0 -38 -32 -117 -75 -185 -24 -39 -29 -42
-40 -27 -15 21 -25 12 -25 -21 0 -53 -88 -193 -178 -284 -94 -95 -129 -112
-117 -56 29 136 111 283 245 441 20 23 56 69 80 101 25 33 92 121 148 195 147
193 163 228 120 268 -33 30 -58 40 -103 44 -39 4 -40 4 -42 -31 -2 -48 -42
-80 -199 -160 -199 -101 -254 -170 -254 -319 0 -85 12 -91 46 -24 23 46 53 78
144 156 62 54 122 103 132 108 37 20 -6 -59 -102 -185 -56 -73 -106 -143 -117
-164 -7 -12 -35 -61 -63 -109 -61 -106 -110 -252 -110 -326 0 -43 5 -58 23
-75 38 -36 69 -28 138 33 34 30 65 55 69 55 4 0 11 -12 15 -27 3 -15 18 -47
33 -72 25 -42 27 -44 30 -21 11 85 100 247 200 365 64 76 272 252 272 231 0
-3 -27 -41 -61 -83 -116 -146 -162 -234 -181 -344 -14 -81 -2 -152 25 -157 32
-6 183 47 237 83 29 19 53 35 55 35 1 0 6 -16 9 -35 4 -19 18 -48 32 -65 23
-27 32 -30 82 -30 62 0 128 26 207 80 25 17 45 27 45 22 0 -18 -62 -157 -98
-219 -35 -60 -38 -63 -75 -63 -36 0 -39 2 -32 23 15 48 17 68 11 92 -10 37
-28 30 -56 -21 -38 -73 -58 -94 -90 -94 -76 0 -103 -40 -55 -84 l25 -23 -291
-507 c-269 -467 -291 -510 -286 -543 4 -20 16 -46 28 -59 24 -26 108 -58 130
-49 18 7 129 209 129 234 0 11 6 21 14 24 23 9 216 395 216 432 0 18 -9 44
-20 58 -11 14 -20 31 -20 39 1 22 154 311 171 321 9 6 24 7 34 3 16 -6 15 -9
-10 -36 -40 -42 -23 -49 39 -16 47 25 56 27 91 17 22 -6 146 -31 275 -56 129
-26 269 -58 310 -71 41 -14 179 -77 305 -139 253 -126 303 -141 368 -110 66
31 112 132 97 214 -9 48 -25 71 -51 71 -18 0 -19 -1 -3 -25 15 -23 12 -45 -6
-45 -5 0 -26 12 -47 26 -79 54 -238 126 -378 172 -72 24 -299 80 -375 93 -125
21 -266 39 -309 39 -78 0 -78 8 -6 99 36 46 65 86 65 89 0 4 4 13 9 20 6 11
16 8 47 -13 34 -23 46 -26 93 -22 71 8 138 32 241 89 l85 46 3 -31 c2 -18 13
-43 25 -55 41 -45 147 -18 274 69 45 31 47 30 57 -18 4 -17 24 -48 44 -69 l37
-38 6 56 c10 89 64 166 181 258 l49 40 38 -40 c33 -35 43 -40 82 -40 24 1 62
7 84 15 21 8 40 13 42 12 1 -2 -4 -27 -12 -57 -27 -101 -13 -197 30 -214 42
-16 94 -5 145 29 29 19 56 35 60 35 5 0 22 -13 38 -30 45 -44 113 -43 198 5
l62 35 7 -29 c7 -34 43 -61 80 -61 29 0 94 31 141 66 39 30 44 30 44 0 0 -29
43 -66 77 -66 38 0 115 44 200 115 43 36 81 65 85 65 5 0 8 -18 8 -40 0 -55
23 -106 52 -116 12 -4 49 -7 80 -7 64 1 124 30 219 105 42 34 62 43 94 44 22
1 56 9 74 18 18 10 35 15 38 13 2 -3 -3 -29 -11 -58 -21 -68 -20 -112 1 -152
14 -27 17 -29 20 -12 16 97 56 181 151 320 67 99 132 167 197 209 61 39 117
68 122 62 3 -2 -30 -55 -72 -116 -120 -176 -165 -274 -165 -363 0 -152 224
-71 348 126 39 61 97 186 113 239 14 50 -8 29 -32 -29 -70 -177 -173 -318
-256 -352 -73 -30 -80 5 -24 124 51 110 85 157 192 272 94 100 109 123 109
177 0 79 -58 90 -175 32 -40 -20 -75 -36 -77 -36 -2 0 -4 11 -3 25 0 23 -8 29
-70 50 -38 13 -73 24 -76 25 -3 0 -9 -22 -12 -49 -7 -55 -30 -106 -90 -198
-34 -52 -43 -60 -58 -53 -24 14 -32 12 -26 -3 7 -18 -28 -95 -56 -125 -21 -23
-97 -68 -97 -57 0 2 18 35 41 72 83 136 122 268 99 337 -20 63 -78 79 -183 52
-68 -18 -107 -37 -177 -89 -61 -45 -80 -63 -129 -125 -24 -31 -37 -40 -44 -33
-18 18 -27 12 -27 -18 0 -51 -125 -203 -263 -319 -71 -60 -85 -36 -37 66 47
100 110 189 208 295 96 104 122 148 105 175 -12 20 -90 60 -131 68 -28 6 -29
5 -34 -40 -4 -30 -25 -79 -63 -146 -55 -98 -58 -101 -86 -95 -28 6 -29 5 -29
-32 0 -79 -92 -216 -203 -302 -103 -79 -112 -29 -27 145 54 110 156 259 290
422 92 112 85 109 168 78 57 -22 131 -22 170 -2 84 43 116 153 59 202 -51 43
-147 24 -147 -30 0 -13 7 -29 15 -36 13 -10 15 -9 15 9 0 16 6 21 24 21 58 0
33 -58 -33 -80 -44 -14 -131 -5 -138 15 -3 11 81 126 160 218 27 32 47 60 44
63 -2 3 -29 -6 -58 -20 -30 -14 -94 -40 -143 -58 l-88 -33 -41 -77 c-29 -57
-46 -78 -60 -78 -26 0 -83 -36 -91 -57 -10 -24 1 -28 23 -9 22 20 61 14 61 -9
0 -7 -16 -34 -35 -60 -20 -26 -70 -99 -112 -163 -93 -143 -89 -138 -107 -122
-19 15 -21 9 -30 -62 -15 -123 -166 -308 -252 -308 -22 0 -15 45 19 129 37 91
81 159 195 301 56 70 102 133 102 140 0 14 -148 83 -161 75 -5 -4 -9 -14 -9
-24 0 -31 -10 -29 -44 5 -42 42 -73 43 -143 9 -63 -32 -217 -175 -244 -226
-19 -38 -20 -39 -43 -24 -24 16 -44 6 -31 -15 12 -19 -33 -99 -67 -120 -60
-36 -138 -20 -138 30 0 36 14 52 95 105 45 30 131 101 190 158 l108 104 -41 7
-42 6 4 278 c2 152 4 312 5 355 1 74 2 77 25 77 33 0 48 23 48 71 -1 47 -11
62 -52 79 -22 9 -30 19 -30 39 -1 55 -59 148 -124 200 l-38 30 49 33 c82 55
169 151 191 210 43 115 38 261 -16 401 -38 101 -143 208 -257 263 -70 33 -91
38 -165 41 -71 3 -96 0 -153 -21z m309 -36 c94 -45 199 -151 245 -245 34 -69
34 -71 34 -205 -1 -158 -18 -216 -87 -294 -47 -55 -148 -126 -177 -126 -33 0
-32 15 2 35 43 24 124 102 152 146 91 141 64 382 -57 514 -51 56 -85 81 -95
71 -3 -3 8 -21 25 -40 29 -34 35 -49 47 -131 7 -54 -11 -154 -33 -185 -11 -14
-36 -35 -58 -48 -34 -20 -49 -22 -119 -19 -131 7 -255 -36 -321 -108 l-31 -35
-21 23 c-53 56 -70 161 -47 292 9 49 17 91 19 93 2 2 25 -13 51 -32 27 -21 58
-36 73 -36 94 0 170 159 112 233 -11 14 -20 29 -20 35 0 11 93 42 126 42 13 0
24 5 24 11 0 8 -17 9 -56 4 -87 -11 -152 -33 -187 -65 l-32 -29 42 -1 c24 0
48 -7 57 -16 24 -23 20 -85 -7 -125 -19 -29 -29 -34 -61 -34 -52 0 -81 37 -80
100 1 38 -2 43 -15 35 -63 -33 -124 -190 -123 -315 1 -160 109 -351 227 -401
39 -16 39 -17 16 -25 -29 -11 -83 18 -157 84 -62 56 -99 124 -127 230 -28 103
-21 209 17 293 49 107 212 249 336 292 53 18 81 22 151 19 74 -3 97 -8 155
-37z m-81 -864 c108 -28 187 -87 233 -174 31 -58 41 -102 23 -102 -5 0 -11 12
-14 28 -8 36 -62 117 -96 141 -32 23 -81 37 -81 24 0 -6 9 -18 20 -28 20 -18
27 -59 11 -69 -5 -3 -59 -1 -121 5 -114 11 -175 6 -293 -23 -54 -14 -75 -3
-54 26 11 16 17 16 34 6 49 -31 144 21 163 90 11 41 43 60 103 60 23 0 28 3
20 11 -15 15 -129 7 -167 -12 -33 -16 -46 -39 -22 -39 41 0 3 -53 -46 -65 -22
-6 -28 -4 -28 9 0 50 -90 -28 -129 -112 -21 -45 -41 -67 -41 -44 0 20 60 108
105 153 113 115 239 153 380 115z m-87 -373 c-10 -2 -28 -2 -40 0 -13 2 -5 4
17 4 22 1 32 -1 23 -4z m228 -13 c23 -5 54 -14 69 -20 27 -10 26 -11 -66 -67
-52 -31 -129 -82 -171 -114 -43 -31 -123 -87 -177 -123 -55 -37 -143 -108
-195 -157 l-96 -91 0 115 0 115 86 83 c79 78 256 208 332 245 17 9 32 21 32
26 0 11 113 4 186 -12z m-479 -15 c-16 -8 -57 -40 -93 -71 l-64 -56 0 55 0 56
58 11 c31 6 62 13 67 15 6 2 21 4 35 4 l25 1 -28 -15z m606 -291 c0 -150 -3
-184 -13 -184 -24 0 -257 -166 -328 -234 -36 -35 -40 -42 -25 -48 14 -5 12 -7
-8 -7 -23 -1 -29 -8 -44 -53 -9 -29 -35 -88 -58 -130 -33 -63 -45 -78 -64 -78
-17 0 -23 -6 -23 -21 0 -58 -111 -220 -204 -297 -45 -37 -91 -56 -108 -45 -45
27 96 275 242 428 95 100 107 120 86 144 -16 17 -57 38 -120 61 l-30 11 31 31
31 31 27 -22 c39 -30 104 -29 139 4 33 31 33 37 -4 79 l-31 34 48 45 c64 59
144 123 223 178 36 25 95 67 132 93 37 26 70 52 74 57 17 28 28 -3 27 -77z
m-6 -246 c-3 -8 -6 -5 -6 6 -1 11 2 17 5 13 3 -3 4 -12 1 -19z m3 -168 c0 -39
-4 -52 -17 -57 -115 -38 -198 -108 -273 -230 -33 -53 -54 -75 -93 -96 -27 -16
-51 -27 -53 -25 -2 2 31 47 74 99 89 110 112 143 112 163 0 7 6 16 13 19 16 6
215 156 222 168 12 18 15 8 15 -41z m-735 -132 c-11 -69 -24 -80 -25 -22 0 50
5 64 23 64 5 0 6 -18 2 -42z m-261 -3 c9 -25 -50 -194 -98 -278 -106 -186
-267 -344 -312 -306 -20 16 -18 37 12 121 45 125 74 162 200 252 18 13 23 21
14 26 -27 16 124 200 164 200 7 0 17 -7 20 -15z m1349 -69 c-1 -45 -11 -60
-27 -47 -17 15 -26 3 -26 -33 0 -41 -88 -215 -153 -301 -31 -41 -72 -82 -100
-99 -63 -39 -73 -29 -58 56 28 158 195 404 315 462 38 18 50 8 49 -38z m1217
29 c0 -3 -12 -24 -26 -46 -38 -61 -85 -185 -94 -250 -11 -75 -18 -86 -97 -159
-73 -67 -142 -105 -172 -95 -68 21 103 353 243 471 59 50 146 97 146 79z
m-3405 -754 c-8 -17 -20 -31 -25 -31 -20 0 -18 18 8 61 23 37 27 41 30 22 2
-12 -4 -35 -13 -52z m-64 -94 c-1 -12 -15 -9 -19 4 -3 6 1 10 8 8 6 -3 11 -8
11 -12z m-42 -66 c11 -7 -4 -42 -73 -170 -47 -89 -86 -168 -86 -177 0 -8 11
-32 25 -52 14 -20 25 -42 25 -49 0 -7 -46 -103 -101 -213 -89 -175 -104 -200
-125 -200 -26 0 -30 -10 -13 -27 8 -8 -4 -38 -45 -111 -30 -54 -62 -104 -70
-111 -30 -25 -146 50 -146 94 0 22 577 1025 589 1025 3 0 12 -4 20 -9z m1392
-326 c-1 -15 -24 -12 -29 3 -3 9 2 13 12 10 10 -1 17 -7 17 -13z"/>
<path d="M2715 904 c-230 -401 -259 -454 -251 -461 3 -3 11 6 17 21 7 14 16
26 20 26 4 0 16 -28 25 -62 17 -59 18 -60 27 -34 6 18 6 35 -1 49 -9 19 -10
17 -6 -13 4 -32 4 -33 -6 -11 -6 14 -8 39 -5 55 4 24 3 27 -4 11 l-10 -20 0
20 c-1 27 45 125 59 125 6 0 8 4 5 10 -5 8 32 86 55 115 4 6 34 57 65 115 31
58 64 113 73 123 21 24 57 21 75 -5 20 -30 30 -18 17 18 -11 28 -48 74 -60 74
-3 0 -46 -70 -95 -156z"/>
<path d="M4348 3353 c-10 -2 -18 -12 -18 -21 0 -32 14 -40 55 -33 34 5 40 10
43 34 3 25 1 27 -30 26 -18 -1 -41 -3 -50 -6z"/>
<path d="M4450 3351 c0 -19 12 -41 20 -36 10 6 1 45 -11 45 -5 0 -9 -4 -9 -9z"/>
<path d="M3670 3210 c0 -5 -11 -10 -25 -10 -14 0 -25 -4 -25 -10 0 -5 -11 -10
-25 -10 -16 0 -25 -6 -25 -16 0 -10 -6 -13 -19 -9 -12 3 -21 0 -24 -10 -4 -8
-13 -12 -22 -9 -8 3 -15 1 -15 -5 0 -6 -9 -11 -20 -11 -11 0 -20 -4 -20 -10 0
-5 -7 -10 -15 -10 -17 0 -21 -25 -5 -35 5 -3 9 -34 9 -68 0 -53 6 -73 39 -136
22 -41 50 -80 63 -87 13 -6 55 -67 95 -135 39 -68 77 -126 85 -130 8 -5 45
-17 82 -29 l68 -21 33 21 c21 13 51 20 80 20 51 0 75 -9 119 -47 16 -13 33
-21 38 -17 5 3 9 49 9 103 l0 98 -59 99 c-32 54 -87 150 -122 212 -61 109
-122 182 -154 182 -25 0 -84 36 -106 64 -21 27 -39 34 -39 16z m88 -143 c9
-10 -1 -15 -43 -25 -57 -13 -145 -49 -145 -58 0 -3 21 -44 46 -90 30 -56 51
-84 63 -84 25 0 129 -149 166 -237 14 -32 14 -34 -1 -22 -8 7 -27 36 -41 63
-49 100 -105 176 -129 176 -35 0 -62 31 -89 103 -39 105 -38 108 53 149 85 40
105 44 120 25z"/>
<path d="M5302 3123 c-16 -27 -46 -79 -67 -118 -21 -38 -85 -149 -142 -247
-56 -97 -103 -187 -103 -200 0 -42 24 -69 83 -96 43 -19 63 -23 75 -16 29 19
23 29 -33 59 -30 17 -50 31 -45 33 5 2 35 -12 67 -30 56 -33 93 -39 93 -15 0
7 -20 23 -45 36 -25 13 -43 26 -41 28 3 3 42 -16 89 -41 86 -47 117 -56 117
-33 0 18 -39 45 -145 97 -109 54 -100 49 -93 56 3 3 58 -22 123 -55 64 -34
123 -61 131 -61 8 0 14 8 14 18 0 17 -61 56 -215 136 -20 10 -24 15 -12 16 9
0 43 -14 75 -32 119 -66 146 -78 169 -78 13 0 23 5 23 10 0 21 -40 49 -146
100 -59 30 -103 55 -97 57 7 3 60 -21 118 -51 109 -58 129 -64 141 -45 10 17
-13 33 -114 84 -51 26 -91 49 -88 52 3 3 54 -20 114 -51 60 -30 112 -52 116
-49 17 18 -2 35 -86 79 -108 54 -139 74 -118 74 7 0 57 -25 111 -55 101 -57
114 -62 124 -45 11 18 -16 40 -104 85 -84 42 -134 74 -118 75 4 0 54 -25 111
-55 108 -58 140 -67 134 -38 -2 10 -39 37 -83 61 -104 57 -128 72 -121 79 2 3
53 -21 111 -52 76 -40 110 -54 118 -46 16 16 -8 38 -77 73 -81 41 -139 78
-132 85 3 3 21 -4 41 -16 20 -11 43 -21 51 -21 8 0 14 -4 14 -9 0 -5 24 -21
54 -37 46 -24 56 -26 70 -15 9 7 16 17 16 21 0 4 -45 31 -100 60 -91 48 -137
80 -114 80 5 0 57 -26 114 -58 58 -33 111 -57 118 -54 25 9 7 36 -43 62 -27
14 -66 36 -85 49 -65 42 9 13 88 -35 60 -36 74 -41 79 -28 13 34 -86 104 -203
144 -86 30 -97 27 -132 -27z"/>
<path d="M2465 1689 c-27 -11 -59 -24 -70 -29 -11 -5 -49 -20 -85 -33 -36 -14
-157 -59 -270 -102 -322 -122 -812 -306 -847 -317 -49 -17 -66 -85 -42 -171
14 -50 74 -117 105 -117 13 0 68 18 123 41 83 35 100 45 106 67 6 23 8 24 16
10 8 -14 32 -6 201 73 106 49 203 97 216 105 25 17 37 40 61 127 l17 58 134
55 c74 30 164 66 199 80 35 14 83 38 106 54 68 47 123 122 87 119 -4 0 -29 -9
-57 -20z m26 -27 c-18 -33 -84 -70 -246 -137 -88 -36 -185 -76 -215 -89 -54
-23 -54 -23 -71 -87 -29 -113 -24 -108 -218 -202 -214 -103 -216 -104 -233
-78 -18 29 -26 26 -34 -14 -8 -43 -13 -47 -94 -75 -36 -12 -69 -26 -75 -31
-19 -19 -67 -9 -95 19 -42 43 -63 141 -41 196 5 14 176 82 667 267 362 137
660 248 662 249 1 0 -2 -8 -7 -18z"/>
<path d="M1870 1383 c-8 -3 -82 -29 -165 -58 -266 -94 -485 -177 -485 -185 0
-4 10 -7 23 -6 18 1 23 -5 28 -39 l6 -40 2 50 c1 36 4 46 11 35 8 -12 10 -12
10 5 0 17 2 17 10 5 8 -12 10 -12 10 -1 0 8 3 12 6 8 3 -3 13 1 22 9 10 8 21
14 26 13 5 0 12 4 16 11 8 13 355 137 409 146 23 4 48 1 61 -6 19 -10 21 -17
15 -48 -4 -24 -3 -33 3 -27 11 11 42 102 42 122 0 13 -22 16 -50 6z"/>
<path d="M1351 1144 c0 -11 3 -14 6 -6 3 7 2 16 -1 19 -3 4 -6 -2 -5 -13z"/>
<path d="M1242 1090 c0 -19 2 -27 5 -17 2 9 2 25 0 35 -3 9 -5 1 -5 -18z"/>
<path d="M6050 1670 c0 -22 6 -56 14 -75 l14 -34 -66 -6 c-582 -53 -888 -124
-1166 -270 -127 -67 -178 -80 -191 -48 -3 10 -1 19 4 21 16 5 13 22 -4 22 -32
0 -48 -46 -43 -124 6 -98 32 -140 106 -174 51 -23 60 -24 101 -13 25 6 111 43
191 83 163 79 171 83 290 134 158 66 285 103 545 158 44 9 126 28 182 41 57
14 109 25 116 25 7 0 48 -72 92 -159 l79 -160 -27 -49 c-15 -27 -27 -61 -27
-76 0 -14 36 -97 80 -183 106 -211 114 -223 145 -223 22 0 24 -2 14 -24 -10
-21 -4 -39 47 -135 40 -77 64 -111 76 -111 63 0 178 74 178 115 0 7 -90 170
-199 362 -110 192 -240 423 -290 512 l-91 163 20 25 c38 49 22 78 -48 89 -40
6 -44 11 -84 80 -23 41 -46 74 -50 74 -4 0 -8 -18 -8 -40z m61 -72 c17 -33 17
-38 4 -38 -17 0 -45 56 -45 87 0 21 8 11 41 -49z m36 -114 c-9 -9 -28 6 -21
18 4 6 10 6 17 -1 6 -6 8 -13 4 -17z m124 -172 c375 -662 455 -804 480 -845
16 -27 29 -54 29 -61 0 -32 -132 -108 -159 -91 -6 3 -33 49 -62 101 -45 84
-50 99 -40 121 14 30 7 43 -24 43 -29 0 -67 59 -156 244 -68 140 -70 157 -25
222 15 23 22 42 17 53 -4 9 -39 81 -79 161 -40 80 -72 150 -72 157 0 37 32 0
91 -105z m-1471 -211 c0 -12 -20 -25 -27 -18 -7 7 6 27 18 27 5 0 9 -4 9 -9z"/>
<path d="M6331 1026 c-12 -18 -23 -49 -27 -67 l-5 -34 16 28 c10 17 24 27 39
27 24 0 29 -6 117 -144 80 -125 149 -253 145 -269 -2 -10 0 -14 7 -10 7 4 8 0
4 -11 -5 -11 -3 -15 5 -10 8 5 9 2 5 -10 -4 -10 -3 -15 3 -11 13 8 13 -1 -1
-28 -9 -20 -9 -20 4 -4 17 21 28 22 21 2 -4 -8 -1 -15 6 -15 7 0 3 -12 -9 -29
-29 -40 -26 -48 5 -14 24 27 25 27 13 3 -12 -24 -11 -24 6 -10 17 14 18 14 6
-8 -7 -12 -16 -20 -22 -17 -5 4 -9 2 -9 -4 0 -5 -3 -18 -6 -28 -3 -10 7 -3 24
16 17 20 34 31 40 27 7 -4 12 -3 12 1 0 5 -62 119 -138 254 -217 382 -227 399
-234 399 -3 0 -16 -15 -27 -34z"/>
<path d="M6645 459 c-4 -6 -5 -12 -2 -15 2 -3 7 2 10 11 7 17 1 20 -8 4z"/>
<path d="M2099 1696 c-2 -3 -200 -7 -439 -11 -239 -4 -441 -8 -447 -10 -7 -3
-104 -5 -214 -5 -111 -1 -212 -5 -224 -10 -51 -19 -73 -174 -33 -225 l22 -28
130 7 c116 6 131 9 144 28 15 20 16 20 28 3 15 -20 22 -20 294 -9 l145 7 42
42 c22 24 47 60 54 79 12 32 17 36 49 37 195 3 513 20 542 29 20 6 47 19 60
30 20 17 21 21 8 30 -14 9 -152 15 -161 6z m141 -22 c0 -3 -17 -12 -37 -21
-29 -12 -98 -18 -302 -24 -145 -5 -272 -11 -283 -14 -10 -4 -28 -25 -39 -48
-30 -59 -67 -96 -103 -102 -60 -9 -366 -24 -381 -19 -8 4 -15 12 -15 19 0 7
-6 18 -14 24 -12 10 -18 7 -30 -17 -18 -36 -37 -41 -163 -44 -85 -2 -95 -1
-115 20 -30 29 -30 102 -1 158 l20 39 109 6 c60 4 323 10 584 14 261 4 477 9
479 11 7 6 291 4 291 -2z"/>
<path d="M1135 1621 c-241 -4 -325 -9 -312 -17 17 -10 17 -13 -3 -64 -11 -29
-19 -55 -16 -57 2 -2 9 11 15 29 6 18 21 47 32 63 22 32 21 25 -6 -40 -22 -51
-11 -41 18 16 19 37 27 44 52 44 17 0 35 3 40 7 13 8 359 2 428 -8 26 -3 57
-14 70 -24 21 -18 22 -19 5 -48 -26 -44 -22 -50 12 -17 38 36 85 104 77 111
-9 10 -73 11 -412 5z"/>
<path d="M926 1565 c-9 -26 -7 -32 5 -12 6 10 9 21 6 23 -2 3 -7 -2 -11 -11z"/>
<path d="M866 1523 c-6 -14 -5 -15 5 -6 7 7 10 15 7 18 -3 3 -9 -2 -12 -12z"/>
<path d="M2755 1494 c-105 -115 -217 -238 -251 -274 -33 -36 -73 -81 -88 -100
-15 -19 -54 -64 -87 -100 -67 -74 -263 -299 -326 -377 -24 -28 -43 -56 -43
-62 0 -26 41 -91 75 -119 35 -28 94 -52 129 -52 20 0 50 33 113 122 42 61 45
70 35 93 -11 24 -10 25 14 19 28 -7 64 18 64 44 0 12 -5 10 -20 -6 -25 -26
-23 -26 -62 -6 l-31 16 7 -29 c19 -77 20 -76 -36 -147 -29 -38 -60 -74 -70
-79 -44 -28 -177 59 -193 126 -8 28 13 56 159 218 28 30 82 93 121 140 38 46
82 98 98 114 46 49 345 382 441 490 48 55 99 109 113 119 l25 19 -7 -24 c-12
-42 -55 -101 -164 -224 -59 -66 -128 -146 -155 -177 -54 -64 -54 -66 -21 -186
l17 -62 -58 -73 c-32 -39 -80 -98 -107 -129 -27 -32 -47 -62 -45 -68 3 -8 109
117 201 238 33 43 32 73 -4 160 l-21 51 181 206 c186 213 216 259 194 308 -8
17 -34 -8 -198 -189z"/>
<path d="M6450 1684 c0 -28 49 -100 101 -150 24 -23 96 -80 160 -125 190 -137
178 -123 193 -239 15 -117 19 -123 138 -207 43 -30 80 -59 84 -64 16 -26 117
-90 132 -84 24 9 27 7 27 -17 0 -17 25 -40 105 -94 58 -40 114 -73 125 -73 12
-1 37 16 57 37 37 37 98 142 98 167 0 8 -111 90 -247 184 -137 93 -275 189
-308 212 -33 23 -141 98 -240 167 -99 69 -226 159 -281 199 -56 40 -105 73
-109 73 -4 0 -14 8 -21 18 -12 16 -13 16 -14 -4z m350 -252 c162 -113 331
-230 375 -262 44 -31 118 -83 165 -115 47 -32 135 -94 197 -137 l112 -79 -11
-30 c-15 -43 -68 -119 -99 -142 l-27 -19 -103 69 -104 70 3 43 4 43 -37 -23
c-33 -21 -37 -21 -54 -6 -10 9 -21 16 -25 16 -4 0 -24 15 -44 34 -20 19 -55
48 -77 64 -22 17 -62 49 -88 73 l-49 44 -14 104 c-8 58 -15 106 -17 107 -1 1
-60 45 -132 97 -172 126 -256 198 -279 237 -23 41 -51 58 304 -188z"/>
<path d="M6950 1198 c0 -40 3 -83 6 -95 10 -37 26 -27 19 11 -15 79 22 98 91
46 21 -16 45 -30 53 -30 7 0 39 -19 70 -42 32 -24 89 -65 129 -93 39 -27 71
-56 72 -63 0 -7 5 -10 10 -7 6 3 10 -2 11 -12 0 -11 3 -13 6 -5 7 18 23 4 17
-16 -5 -13 -4 -14 4 -3 13 18 32 5 32 -22 0 -18 2 -19 10 -7 8 12 10 10 11
-10 0 -23 1 -23 9 -5 8 18 9 18 9 -5 1 -20 3 -22 11 -10 7 11 10 7 11 -20 l1
-35 9 30 c6 24 7 20 4 -20 -2 -27 -7 -61 -11 -74 -5 -16 -4 -22 4 -17 6 3 16
31 23 62 9 38 16 53 26 50 7 -3 13 -1 13 4 0 5 -71 57 -157 115 -87 59 -194
134 -239 168 -76 59 -230 168 -246 175 -5 2 -8 -29 -8 -70z"/>
<path d="M7452 865 c0 -16 2 -22 5 -12 2 9 2 23 0 30 -3 6 -5 -1 -5 -18z"/>
<path d="M7502 770 c0 -14 2 -19 5 -12 2 6 2 18 0 25 -3 6 -5 1 -5 -13z"/>
<path d="M6680 1686 c0 -24 58 -84 109 -114 47 -27 164 -76 304 -127 88 -31
99 -43 117 -125 7 -30 17 -61 23 -68 14 -18 264 -143 364 -183 68 -27 77 -28
93 -14 20 18 30 11 30 -22 0 -19 10 -28 44 -43 73 -31 183 -61 200 -54 9 4 28
26 43 51 21 36 26 58 27 120 l1 76 -290 109 c-551 207 -1025 388 -1047 399
-14 7 -18 6 -18 -5z m107 -50 c33 -14 199 -77 369 -141 170 -65 422 -160 559
-212 138 -52 260 -97 273 -100 52 -12 39 -139 -22 -216 -14 -18 -17 -18 -73
-2 -107 31 -150 54 -157 83 -3 15 -10 34 -16 42 -9 13 -13 12 -30 -8 -19 -24
-20 -24 -69 -7 -75 25 -343 163 -367 190 -12 12 -26 50 -33 83 -7 34 -18 68
-26 75 -7 8 -62 31 -122 51 -137 48 -301 126 -332 160 -30 32 -29 32 46 2z"/>
<path d="M7250 1405 c0 -4 9 -38 21 -76 24 -78 43 -102 33 -41 -4 24 -2 42 5
46 37 23 451 -94 451 -127 0 -6 3 -7 7 -3 4 4 13 -8 19 -26 l12 -33 3 30 2 30
7 -35 c7 -31 7 -32 9 -7 2 41 21 33 22 -10 l2 -38 7 35 c4 19 8 29 9 21 0 -7
7 -11 16 -7 11 4 15 -2 16 -22 2 -24 2 -24 6 -4 7 37 23 14 25 -36 l1 -47 8
45 7 45 0 -50 c-1 -79 1 -95 12 -95 7 0 9 30 6 83 l-5 82 -38 13 c-21 7 -81
30 -133 51 -52 22 -187 69 -300 106 -113 37 -211 69 -217 72 -7 2 -13 2 -13
-2z"/>
<path d="M7872 1115 c0 -16 2 -22 5 -12 2 9 2 23 0 30 -3 6 -5 -1 -5 -18z"/>
<path d="M7821 1114 c0 -11 3 -14 6 -6 3 7 2 16 -1 19 -3 4 -6 -2 -5 -13z"/>
<path d="M7902 1075 c0 -16 2 -22 5 -12 2 9 2 23 0 30 -3 6 -5 -1 -5 -18z"/>
<path d="M2685 1663 c-22 -15 -148 -105 -280 -199 -132 -94 -384 -271 -560
-394 -176 -122 -323 -227 -327 -233 -8 -13 14 -87 39 -129 24 -42 78 -78 115
-78 20 0 59 21 124 68 86 61 94 70 92 97 -3 29 -1 30 37 30 44 0 94 34 245
165 111 96 109 93 110 187 0 89 3 95 67 134 21 13 43 29 48 35 6 7 62 49 125
94 141 100 177 133 201 185 33 71 25 80 -36 38z m15 -32 c0 -21 -88 -104 -163
-154 -45 -30 -104 -73 -132 -95 -27 -23 -70 -56 -95 -75 l-45 -33 -3 -89 c-3
-108 1 -102 -182 -247 -126 -101 -127 -101 -187 -83 -22 7 -23 4 -23 -38 l0
-45 -90 -66 -89 -66 -41 16 c-51 21 -86 62 -105 126 -8 28 -14 52 -12 53 51
32 680 471 747 522 50 38 54 41 260 182 145 100 160 108 160 92z"/>
<path d="M2141 1195 c-78 -48 -231 -154 -231 -160 0 -2 46 25 102 60 148 93
188 95 188 12 0 -31 3 -38 12 -29 15 15 22 110 11 140 -8 22 -9 22 -82 -23z"/>
<path d="M1768 942 c-126 -87 -223 -161 -166 -128 l27 16 6 -38 c10 -56 15
-62 12 -12 -3 29 1 50 9 58 20 18 22 15 27 -25 3 -35 4 -35 5 9 2 41 6 49 36
68 19 11 36 24 38 28 2 5 33 30 71 56 56 40 77 58 65 56 -2 -1 -60 -40 -130
-88z"/>
<path d="M1701 834 c0 -11 3 -14 6 -6 3 7 2 16 -1 19 -3 4 -6 -2 -5 -13z"/>
<path d="M1662 780 c0 -14 2 -19 5 -12 2 6 2 18 0 25 -3 6 -5 1 -5 -13z"/>
<path d="M6246 1653 c13 -75 57 -137 269 -379 41 -48 75 -94 75 -103 0 -9 -7
-41 -15 -71 -8 -30 -15 -66 -15 -79 0 -23 86 -161 101 -161 4 0 37 -38 73 -84
77 -99 120 -138 143 -129 13 5 15 1 10 -24 -5 -27 2 -37 76 -111 45 -45 89
-82 96 -82 22 0 142 90 153 116 6 13 15 24 20 24 25 0 -16 50 -253 312 -141
156 -361 401 -489 546 -128 144 -237 262 -242 262 -5 0 -6 -17 -2 -37z m142
-135 c60 -68 156 -175 213 -238 269 -299 583 -651 596 -669 12 -19 12 -25 -4
-52 -19 -32 -111 -99 -137 -99 -8 0 -47 30 -85 68 -68 65 -70 68 -64 105 l6
39 -33 -4 c-31 -3 -39 4 -122 97 -48 55 -110 133 -137 174 -55 81 -55 85 -21
187 21 60 19 65 -60 150 -158 170 -300 364 -266 364 2 0 53 -55 114 -122z"/>
<path d="M6626 1108 c-8 -18 -17 -49 -20 -68 -6 -30 -5 -33 6 -16 7 10 20 28
29 40 l17 21 34 -25 c19 -14 84 -79 144 -144 158 -173 174 -193 171 -208 -2
-7 -2 -10 0 -5 10 16 21 6 16 -15 -4 -19 -3 -20 7 -8 10 12 11 11 6 -7 -3 -13
-9 -33 -12 -46 -3 -12 4 -4 15 18 20 38 21 38 17 10 -3 -16 -8 -39 -11 -50 -6
-16 -5 -17 4 -5 9 13 11 12 12 -5 l0 -20 9 20 c12 27 12 43 0 25 -9 -13 -10
-13 -10 0 0 8 5 22 10 30 8 13 10 12 10 -2 0 -10 4 -18 10 -18 5 0 3 -19 -5
-41 -21 -58 -17 -63 6 -10 11 24 22 42 25 39 3 -3 -7 -32 -21 -63 -35 -79 -23
-82 14 -4 l30 63 -99 105 c-54 58 -110 117 -125 131 -15 14 -79 85 -142 158
-63 72 -119 132 -124 132 -6 0 -16 -15 -23 -32z"/>
<path d="M6910 1682 c0 -5 13 -21 30 -35 34 -29 51 -31 478 -53 l133 -7 39
-78 c22 -42 47 -80 57 -83 10 -2 116 -6 237 -8 l219 -3 9 24 9 24 28 -27 29
-28 136 7 136 7 6 35 c9 48 -1 135 -20 172 l-17 31 -127 2 c-70 1 -143 2 -162
3 -19 1 -226 5 -460 9 -234 3 -500 9 -592 13 -116 4 -168 3 -168 -5z m1084
-33 c308 -7 412 -12 418 -22 24 -37 37 -148 20 -174 -5 -9 -49 -15 -128 -19
l-119 -6 -29 31 c-34 35 -56 40 -56 12 0 -39 -19 -41 -231 -36 -234 7 -222 2
-275 108 -34 67 -34 67 -77 67 -23 0 -151 7 -285 15 -217 13 -282 23 -282 42
0 5 207 2 1044 -18z"/>
<path d="M7600 1614 c0 -3 15 -34 34 -69 19 -36 36 -70 39 -77 2 -7 8 -10 12
-6 4 4 3 20 -3 36 -5 16 -7 34 -3 40 22 37 170 62 362 62 l129 0 15 -32 c13
-30 14 -30 9 -5 -4 16 -2 27 5 27 6 0 11 -9 11 -19 0 -11 4 -22 9 -25 4 -3 6
7 4 22 -3 23 -2 24 6 7 9 -19 10 -19 10 -1 1 26 14 12 28 -32 l11 -37 -4 45
-4 45 11 -35 c14 -46 32 -64 19 -19 -12 42 -13 52 -1 44 5 -3 12 -19 16 -35 4
-16 10 -32 15 -35 5 -3 5 9 -1 27 -13 46 -11 56 6 34 13 -17 15 -18 15 -3 0 9
4 17 9 17 11 0 17 -17 27 -73 3 -20 10 -40 15 -42 11 -7 0 62 -17 103 l-13 32
-168 0 c-92 0 -266 3 -385 5 -120 3 -218 3 -218 -1z"/>
<path d="M8241 1534 c0 -11 3 -14 6 -6 3 7 2 16 -1 19 -3 4 -6 -2 -5 -13z"/>
<path d="M8351 1534 c0 -11 3 -14 6 -6 3 7 2 16 -1 19 -3 4 -6 -2 -5 -13z"/>
<path d="M2465 1080 c-33 -36 -83 -87 -111 -115 -28 -27 -77 -86 -110 -130
-32 -44 -84 -107 -115 -141 -31 -34 -62 -72 -69 -85 -13 -24 -13 -24 9 -5 11
11 23 17 25 15 1 -2 8 -13 15 -24 11 -18 11 -18 5 5 -4 14 -9 31 -12 39 -3 9
-1 12 6 7 7 -4 12 -2 12 6 0 10 3 9 11 -2 8 -12 9 -11 4 6 -4 14 0 24 10 28 8
3 15 12 15 21 0 8 4 15 8 15 5 0 35 37 68 83 71 99 204 234 251 254 38 15 63
5 63 -26 0 -10 7 -26 16 -37 15 -18 15 -18 10 12 -2 16 -15 54 -28 84 l-24 54
-59 -64z"/>
<path d="M4750 819 c0 -24 -67 -141 -187 -326 l-125 -193 -38 0 c-32 0 -37 -3
-33 -18 6 -24 -29 -66 -72 -87 -43 -20 -65 -14 -65 17 0 46 12 64 58 88 51 27
172 138 172 158 0 8 -17 12 -48 12 -64 0 -119 -39 -172 -122 -35 -54 -107
-128 -124 -128 -4 0 27 45 69 100 41 54 75 104 75 110 0 6 -16 18 -35 26 -39
16 -99 19 -90 4 7 -12 -25 -88 -55 -130 -16 -23 -29 -30 -53 -30 -29 0 -32 -3
-34 -34 -2 -50 -58 -130 -131 -189 -40 -32 -62 -35 -62 -8 0 22 79 145 164
256 34 44 65 85 69 92 9 15 -33 38 -85 48 -34 6 -36 5 -31 -14 7 -27 -1 -26
-31 4 -74 74 -215 -16 -306 -197 -51 -102 -68 -175 -48 -214 12 -25 19 -29 55
-28 28 0 56 10 82 27 50 33 51 33 51 2 0 -57 112 -37 193 35 l37 32 0 -39 c0
-64 42 -88 54 -30 5 23 31 56 94 117 87 85 87 85 90 55 2 -16 8 -36 14 -42 16
-20 79 -15 122 8 21 11 40 18 42 16 3 -2 -7 -24 -21 -48 -87 -154 75 -189 242
-53 32 27 47 33 70 28 19 -3 44 3 76 19 39 20 47 22 41 8 -49 -115 -44 -137
30 -134 54 2 109 31 183 97 l50 45 0 -45 c0 -59 30 -91 93 -100 77 -10 152 21
239 99 38 34 43 34 31 1 -20 -52 -7 -104 26 -104 6 0 14 14 18 31 4 21 32 57
85 110 43 44 84 79 90 79 6 0 11 -10 11 -23 0 -13 5 -28 12 -35 21 -21 88 -14
136 14 39 23 44 24 37 8 -4 -11 -10 -45 -13 -76 -4 -51 -2 -59 23 -84 24 -24
32 -26 76 -21 82 10 163 61 272 169 53 54 97 103 97 110 0 9 -14 12 -49 10
-40 -3 -48 -7 -44 -20 5 -21 -43 -95 -93 -142 -20 -19 -35 -30 -32 -25 2 6 14
32 26 58 12 27 31 83 42 125 10 43 26 97 35 121 8 24 15 47 15 51 0 14 -71 -8
-118 -37 l-46 -28 3 -65 c3 -84 -12 -150 -51 -228 -31 -61 -60 -84 -88 -67
-27 17 39 166 93 211 41 35 24 44 -80 44 -73 0 -81 -2 -76 -18 6 -24 -29 -66
-72 -87 -45 -21 -65 -14 -65 23 0 37 12 51 86 100 34 22 83 65 109 94 l48 53
-57 3 c-51 3 -61 0 -96 -28 -21 -17 -57 -59 -80 -92 -37 -56 -108 -128 -125
-128 -3 0 30 47 75 105 l81 104 -26 17 c-14 9 -45 19 -70 22 l-45 5 0 -34 c0
-23 -12 -52 -35 -87 -31 -46 -40 -52 -70 -52 -26 0 -33 -3 -29 -15 15 -38
-118 -190 -199 -228 -65 -31 -117 -18 -117 30 0 50 19 69 82 82 118 24 201 97
293 259 l53 92 -39 0 c-27 0 -51 -8 -72 -24 -18 -14 -54 -30 -80 -36 -72 -16
-144 -56 -199 -111 -40 -40 -55 -49 -84 -49 -20 0 -33 -4 -29 -10 26 -42 -149
-240 -213 -240 -32 0 23 99 146 260 45 60 82 112 82 114 0 10 -55 34 -92 41
-33 6 -35 5 -31 -17 2 -14 -10 -46 -33 -85 -35 -59 -40 -63 -75 -63 -32 0 -36
-3 -32 -20 8 -29 -38 -94 -81 -114 -53 -25 -62 -11 -22 36 49 56 105 168 112
222 l7 46 -52 0 c-49 0 -52 -2 -77 -42 -45 -71 -84 -161 -84 -195 0 -54 -98
-162 -163 -178 -86 -22 -59 27 297 524 l146 205 -27 17 c-37 22 -103 34 -103
18z m-872 -427 c3 -19 -1 -22 -28 -22 -24 0 -31 -4 -27 -14 23 -60 -141 -306
-204 -306 -20 0 -21 4 -16 40 3 23 24 74 47 115 91 158 218 262 228 187z
m1492 22 c0 -3 -16 -37 -36 -75 -42 -80 -111 -149 -149 -149 -18 0 -24 4 -19
13 30 50 72 103 125 156 56 56 79 71 79 55z"/>
<path d="M3288 735 c-75 -19 -149 -57 -199 -102 -49 -44 -69 -81 -69 -127 0
-42 37 -76 85 -76 29 0 31 2 27 29 -10 72 67 179 162 226 100 49 241 53 273 9
49 -67 -34 -207 -162 -271 -53 -27 -134 -42 -119 -22 6 8 47 59 92 115 45 55
82 105 82 111 0 14 -72 43 -105 43 -20 0 -25 -5 -25 -25 0 -14 -28 -64 -65
-117 -234 -336 -260 -385 -220 -415 26 -18 32 -17 39 11 6 26 140 211 169 235
25 20 88 2 106 -31 43 -77 -83 -231 -224 -274 -73 -21 -156 -19 -183 6 -47 44
-17 156 59 224 l39 36 -57 0 c-113 -1 -193 -64 -193 -153 0 -41 5 -52 38 -85
47 -47 93 -62 207 -69 148 -8 262 27 353 110 46 43 92 124 92 165 0 27 -17 62
-38 78 -11 8 -6 13 24 22 59 18 144 82 181 136 63 92 53 153 -32 196 -43 22
-65 25 -165 27 -74 2 -135 -3 -172 -12z"/>
<path d="M2166 645 c-9 -26 -7 -32 5 -12 6 10 9 21 6 23 -2 3 -7 -2 -11 -11z"/>
<path d="M5096 625 c-38 -80 6 -125 66 -68 62 58 57 103 -12 103 -33 0 -40 -4
-54 -35z"/>
</g>
</svg>
