<?xml version="1.0" standalone="no"?>
<!DOCTYPE svg PUBLIC "-//W3C//DTD SVG 20010904//EN"
 "http://www.w3.org/TR/2001/REC-SVG-20010904/DTD/svg10.dtd">
<svg version="1.0" xmlns="http://www.w3.org/2000/svg"
 width="512.000000pt" height="512.000000pt" viewBox="0 0 512.000000 512.000000"
 preserveAspectRatio="xMidYMid meet">

<g transform="translate(0.000000,512.000000) scale(0.100000,-0.100000)"
fill="#000000" stroke="none">
<path d="M3105 5110 c-231 -34 -2735 -484 -2775 -499 -159 -60 -273 -186 -315
-346 -65 -252 93 -514 359 -590 44 -13 83 -16 160 -12 94 4 160 21 956 241
960 266 993 275 1177 310 294 57 441 70 808 70 367 1 466 -6 750 -54 219 -37
448 -95 655 -166 91 -30 173 -58 183 -61 20 -6 57 23 57 45 0 30 -185 235
-348 386 -401 370 -793 584 -1213 662 -99 18 -368 27 -454 14z"/>
<path d="M3170 3445 c-179 -79 -331 -148 -338 -152 -10 -6 61 -82 246 -265
143 -142 264 -258 269 -258 17 0 313 653 313 691 0 69 -64 129 -137 129 -15 0
-174 -65 -353 -145z"/>
<path d="M1714 2209 c-484 -473 -930 -911 -992 -973 l-113 -112 270 -263 271
-262 990 972 c545 534 989 975 988 979 -4 10 -524 520 -531 520 -2 0 -400
-387 -883 -861z"/>
<path d="M198 723 c-201 -202 -209 -215 -194 -300 6 -33 33 -64 189 -217 181
-178 219 -206 277 -206 59 0 98 29 280 207 l183 178 -268 263 c-148 144 -271
262 -274 262 -4 0 -91 -84 -193 -187z"/>
</g>
</svg>
